<?xml version="1.0" encoding="UTF-8"?>
<svg id="Layer_1" data-name="Layer 1" xmlns="http://www.w3.org/2000/svg" viewBox="0 0 295.61 452.63">
  <defs>
    <style>
      .cls-1 {
        fill: #aa2536;
      }

      .cls-2 {
        fill: #efaa48;
      }

      .cls-3 {
        fill: #b71f35;
      }

      .cls-4 {
        fill: #871a1c;
      }

      .cls-5 {
        fill: #efb961;
      }

      .cls-6 {
        fill: #911e1f;
      }

      .cls-7 {
        fill: #ca8b2a;
      }
    </style>
  </defs>
  <path class="cls-4" d="m136.58,74.6c-.02,9.2-1.05,17.76-2.83,25.86-11.51,52.44-54.32,85.11-56.88,140.69,0-.33.01-.88.02-1.54,1.51-84.25,40.52-114.52,35.11-174.36-.05-.54-.1-1.08-.16-1.61-.04-.36-.07-.71-.11-1.05-.04-.33-.08-.66-.12-.98-.09-.8-.19-1.58-.3-2.35-.05-.35-.09-.68-.15-1.02-.06-.42-.13-.84-.19-1.26-.06-.37-.12-.75-.18-1.12s-.13-.74-.19-1.1c-.05-.28-.1-.56-.15-.83-.22-1.16-.45-2.3-.7-3.41-.08-.35-.15-.68-.23-1.02-.08-.34-.16-.67-.24-1.01-.22-.91-.44-1.81-.68-2.68-.19-.72-.39-1.42-.6-2.11-.18-.61-.36-1.22-.56-1.81-.37-1.18-.76-2.33-1.16-3.43-.1-.28-.2-.55-.3-.83-.09-.27-.2-.54-.3-.81-.88-2.31-1.81-4.44-2.75-6.4-.14-.3-.28-.59-.43-.88-.43-.87-.86-1.7-1.29-2.49-.46-.84-.91-1.64-1.36-2.4-.15-.25-.3-.5-.44-.75-.06-.11-.12-.2-.19-.3-.16-.26-.32-.53-.48-.78-.08-.12-.15-.23-.22-.35-.3-.47-.59-.92-.88-1.36-.29-.42-.56-.83-.84-1.22-.83-1.2-1.63-2.26-2.35-3.19-6.45-8.26-13.36-13.61-17.85-16.68,9.18.12,24.35,1.82,37.15,11.99,22.92,18.21,22.84,51.31,22.82,62.61Z"/>
  <path class="cls-3" d="m74.56,241.94c-.01.67-.02,1.21-.02,1.54-.09-80.38-.18-160.76-.27-241.15,4.49,3.07,11.4,8.41,17.85,16.68,5.62,7.2,15.15,22.06,17.55,48.56,5.42,59.84-33.6,90.11-35.11,174.36Z"/>
  <path class="cls-5" d="m218.79,239.6c.01.67.02,1.21.02,1.54-2.49-53.96-42.91-86.33-55.8-136.16-2.43-9.41-3.89-19.45-3.91-30.38-.02-11.29-.1-44.4,22.82-62.61C194.74,1.82,209.9.12,219.08,0c-4.49,3.07-11.4,8.41-17.85,16.68-.37.47-.75.98-1.16,1.52-.13.18-.27.36-.4.55-.91,1.26-1.88,2.69-2.89,4.31-.11.17-.22.35-.32.52-.7,1.14-1.4,2.36-2.11,3.69-1.37,2.56-2.74,5.46-4.04,8.75-.31.78-.61,1.6-.91,2.43-.55,1.52-1.08,3.12-1.57,4.79-.1.31-.19.63-.28.94-.12.4-.23.81-.35,1.22-.1.37-.2.74-.3,1.12-.09.32-.17.64-.25.97-.46,1.84-.9,3.75-1.28,5.76-.09.47-.18.93-.26,1.4-.13.76-.27,1.53-.39,2.31-.06.35-.11.7-.16,1.06-.25,1.65-.47,3.35-.66,5.1-.03.27-.06.56-.09.84-.04.43-.08.85-.12,1.29-5.42,59.84,33.6,90.11,35.11,174.36Z"/>
  <path class="cls-1" d="m221.13,241.94c.01.67.02,1.21.02,1.54.09-80.38.18-160.76.27-241.15-4.49,3.07-11.4,8.41-17.85,16.68-5.62,7.2-15.15,22.06-17.55,48.56-5.42,59.84,33.6,90.11,35.11,174.36Z"/>
  <g>
    <g>
      <path class="cls-6" d="m0,342.86h.2c1.69.8,4.78,1.39,7.97,1.39,2.69,0,5.58-.4,7.77-1.39-.9,1.1-1.49,5.38-1.49,21.42v31.98c0,4.88,3.49,6.68,7.87,6.68,7.17,0,16.74-5.08,16.74-10.06h1.49v12.95c-2.19-1-10.16-1.4-18.53-1.4-9.76,0-20.03.6-21.72,1.4h-.3c.9-1.1,1.49-5.38,1.49-21.42v-20.13c0-16.04-.6-20.33-1.49-21.42Z"/>
      <path class="cls-6" d="m54.1,388.3l19.43-45.44h1.59l16.84,41.55c6.48,16.04,8.77,20.33,10.16,21.42-2.59-1-5.78-1.4-8.77-1.4-3.49,0-6.68.6-7.97,1.4h-.2c.4-1-.6-4.68-5.78-17.84h-23.61l-.3.8c-4.38,10.26-1.89,13.45,2.09,16.04v1c-2.69-1-4.98-1.49-7.37-1.49s-4.78.5-7.67,1.49v-1c4.68-2.79,7.07-5.98,11.56-16.54Zm2.39-1.79h22.32c-.3-.7-.6-1.4-.9-2.09l-9.96-24.51-11.46,26.6Zm14.15-48.13l4.48-14.55h9.67l-12.55,14.55h-1.59Z"/>
      <path class="cls-6" d="m134.41,381.32c4.38,0,9.17,2.89,9.17,8.17-4.48-.4-7.57,2.29-7.57,6.78,0,5.68,5.68,9.07,10.96,9.07s10.26-2.79,10.26-8.77c0-17.14-32.28-20.82-32.28-39.86,0-10.26,10.36-14.85,20.73-14.85,7.17,0,20.63,3.19,20.63,12.65,0,4.48-3.49,8.27-9.86,8.27-4.28,0-8.97-3.09-8.97-7.77,3.19,0,7.37-1.4,7.37-5.28,0-4.09-4.19-6.28-8.47-6.28-4.78,0-9.07,2.69-9.07,7.97,0,12.85,32.08,20.73,32.08,39.56,0,10.56-11.26,15.84-22.42,15.84-9.47,0-23.02-4.38-23.02-15.94,0-6.08,4.78-9.57,10.46-9.57Z"/>
      <path class="cls-6" d="m175.55,342.86c1.69.8,4.78,1.39,7.97,1.39,2.69,0,5.58-.4,7.77-1.39-.9,1.1-1.49,5.38-1.49,21.42v20.13c0,16.04.6,20.33,1.49,21.42-2.19-1-5.08-1.4-7.77-1.4-3.19,0-6.28.6-7.97,1.4h-.2c.9-1.1,1.49-5.38,1.49-21.42v-20.13c0-16.04-.6-20.33-1.49-21.42h.2Z"/>
      <path class="cls-6" d="m198.27,342.86h.2c1.69.8,4.78,1.39,7.97,1.39,2.69,0,5.58-.4,7.77-1.39-.9,1.1-1.49,5.38-1.49,21.42v31.98c0,4.88,3.49,6.68,7.87,6.68,7.17,0,16.74-5.08,16.74-10.06h1.49v12.95c-2.19-1-10.16-1.4-18.53-1.4-9.76,0-20.03.6-21.72,1.4h-.3c.9-1.1,1.49-5.38,1.49-21.42v-20.13c0-16.04-.6-20.33-1.49-21.42Z"/>
      <path class="cls-6" d="m244.3,342.86h.2c1.69.8,4.78,1.39,7.97,1.39,2.69,0,5.58-.4,7.77-1.39-.9,1.1-1.49,5.38-1.49,21.42v9.07l13.55-17.54c4.78-6.18,4.78-10.06,2.49-11.96v-1c2.39,1,4.38,1.49,6.68,1.49s4.58-.5,7.77-1.49v1c-4.88,2.39-9.17,4.38-15.74,12.85l-11.96,15.44c4.48-2.29,10.66-3.99,14.05-3.99,18.73,0,7.27,36.67,20.03,36.67v1h-7.37c-21.02,0-8.47-33.68-21.22-33.68-2.29,0-5.58.8-8.27,2.59v9.67c0,16.04.6,20.33,1.49,21.42-2.19-1-5.08-1.4-7.77-1.4-3.19,0-6.28.6-7.97,1.4h-.2c.9-1.1,1.49-5.38,1.49-21.42v-20.13c0-16.04-.6-20.33-1.49-21.42Z"/>
    </g>
    <g>
      <path class="cls-7" d="m82.39,422.95h3.82v20.85h6.29v3.48h-10.11v-24.32Z"/>
      <path class="cls-7" d="m106.59,447.27h-3.85l-.66-4.41h-4.68l-.66,4.41h-3.51l3.88-24.32h5.6l3.88,24.32Zm-7.26-29.56l2.51,4.07h-2.88l-3.75-4.07h4.12Zm-1.46,21.85h3.7l-1.85-12.3-1.85,12.3Z"/>
      <path class="cls-7" d="m111.77,429.66v17.61h-3.44v-24.32h4.8l3.92,14.57v-14.57h3.41v24.32h-3.94l-4.75-17.61Z"/>
      <path class="cls-7" d="m128.92,433.72h5.36v7.72c0,4.07-1.9,6.11-5.7,6.11s-5.7-2.04-5.7-6.11v-12.65c0-4.07,1.9-6.11,5.7-6.11s5.7,2.04,5.7,6.11v2.37h-3.61v-2.61c0-1.59-.66-2.39-1.98-2.39s-1.98.8-1.98,2.39v13.13c0,1.58.66,2.37,1.98,2.37s1.98-.79,1.98-2.37v-4.48h-1.75v-3.48Z"/>
      <path class="cls-7" d="m142.1,422.95h6.04c3.8,0,5.7,2.01,5.7,6.02v12.3c0,4-1.9,6-5.7,6h-6.04v-24.32Zm3.82,3.48v17.37h2.15c1.3,0,1.95-.79,1.95-2.36v-12.65c0-1.57-.65-2.36-1.95-2.36h-2.15Z"/>
      <path class="cls-7" d="m160.07,433.21h5.26v3.46h-5.26v7.12h6.6v3.48h-10.41v-24.32h10.41v3.48h-6.6v6.78Zm-3.71-11.43l3.24-4.07h3.65l3.22,4.07h-3.44l-1.63-2.02-1.59,2.02h-3.44Zm6.89,27.31v3.54h-3.54v-3.54h3.54Z"/>
      <path class="cls-7" d="m168,422.95h11.81v3.48h-3.99v20.85h-3.82v-20.85h-4v-3.48Z"/>
      <path class="cls-7" d="m186.91,422.95h3.82v20.85h6.29v3.48h-10.11v-24.32Z"/>
      <path class="cls-7" d="m202.39,422.95v18.76c0,1.58.66,2.37,1.98,2.37s1.98-.79,1.98-2.37v-18.76h3.61v18.52c0,4.07-1.9,6.11-5.7,6.11s-5.7-2.04-5.7-6.11v-18.52h3.82Zm3.65,26.14v3.54h-3.54v-3.54h3.54Z"/>
      <path class="cls-7" d="m224.93,447.27h-3.85l-.66-4.41h-4.68l-.66,4.41h-3.51l3.88-24.32h5.6l3.88,24.32Zm-8.72-7.72h3.7l-1.85-12.3-1.85,12.3Z"/>
    </g>
    <g>
      <path class="cls-1" d="m146.05,322.47c-.5.01-1.01.01-1.49,0-23.22-.57-40.19-13.75-42.29-15.47,0,0-17.99-14.69-23.05-36.14-1.13-4.78-1.47-9.5-1.47-9.5-.03-.43-.05-.75-.07-1.14-.18-3.3-.21-6.56-.09-9.78,0-.31.01-.64.04-.95,2.38-55.54,45.46-97.18,57.53-149.96-.3,1.48-.67,3.32-1.1,5.36,0,0-.58,2.73-1.21,5.41-2.09,9.11-17.7,51.73-24.59,86.35-.3,1.52-.58,2.99-.84,4.41-17,42.14-5.46,90.02,25.61,113.51,4.03,3.05,8.4,5.68,13.01,7.89Z"/>
      <path class="cls-2" d="m192.64,305.72c-16.27,13.66-35.48,15.37-44.19,15.54-3.3-1.58-7.96-4.09-13.01-7.9-27-20.35-31.96-52.72-32.92-59.03-3.53-23.05,2.16-41.87,6.01-51.68-1.35,5.93-3.41,19.13,2.75,32.98,1.69,3.8,4.6,10.25,11.39,15.59,8.77,6.89,19.25,8.15,27.04,7.87h.07c7.51-.01,16.97-1.6,24.98-7.9,7.1-5.58,10.11-12.56,11.4-15.59,2.04-4.8,3.16-9.69,3.35-15.6.21-6.52-.71-14.31-2.75-24.59-6.87-34.62-22.48-77.24-24.59-86.35-.61-2.68-1.19-5.41-1.19-5.41-.43-2.04-.82-3.88-1.1-5.36,11.67,51.03,52.32,91.65,57.15,144.49,1.5,25.18-7.22,48.53-24.38,62.93Z"/>
    </g>
  </g>
</svg>